# xmcd CD database file
#
# Track frame offsets:
#	150
#	12256
#	25285
#	42730
#	57332
#	69242
#	83774
#	100543
#	112841
#	129644
#	142413
#	161214
#	175854
#	188811
#	208968
#	223271
#	237807
#	254039
#	268530
#	286896
#
# Disc length: 4014 seconds
#
# Revision: 0
# Processed by: cddbd v1.5.2PL0 Copyright (c) Steve Scherf et al.
# Submitted via: ACXtractor (MTCDDB.DLL V2003.07.15)
#
DISCID=310fac14
DTITLE=Slim Dusty - A Land He Calls his Own
DYEAR=1998
DGENRE=Country
TTITLE0=The Shearers Song
TTITLE1=The Crow
TTITLE2=Mount Buraroo
TTITLE3=Son of Noisy Dan
TTITLE4=Hard Hard Country
TTITLE5=Keeroongooloo Station
TTITLE6=When Snowy Sings of Home
TTITLE7=The dog who Stole My Hat
TTITLE8=My Time
TTITLE9=The Foxleigh Rodeo
TTITLE10=End of the Canning Stock Route
TTITLE11=King of Kalgoorlie
TTITLE12=Scrap with a Buck Kangaroo
TTITLE13=Ballad of the Drover
TTITLE14=Crying on each other's Shoulder
TTITLE15=The Round Table
TTITLE16=The Pearl of them All
TTITLE17=Balladeers of Australia
TTITLE18=Drought Time
TTITLE19=Last of the Bushman
EXTD=ID3G:   2 YEAR: 1998
EXTT0=
EXTT1=
EXTT2=
EXTT3=
EXTT4=
EXTT5=
EXTT6=
EXTT7=
EXTT8=
EXTT9=
EXTT10=
EXTT11=
EXTT12=
EXTT13=
EXTT14=
EXTT15=
EXTT16=
EXTT17=
EXTT18=
EXTT19=
PLAYORDER=
